<svg xmlns="http://www.w3.org/2000/svg" viewBox="0 0 48 48" aria-hidden="true">
  <path d="M7 20.2 11.3 9h25.4L41 20.2v3.1c0 2.4-1.6 4.4-3.8 5.1V39a3 3 0 0 1-3 3H13.8a3 3 0 0 1-3-3V28.4A5.4 5.4 0 0 1 7 23.3v-3.1Zm8.3 8.4V37h7.2V28.6h-7.2Zm11.2 0V37h6.2V28.6h-6.2ZM12.7 13l-2.1 5.5h26.8L35.3 13H12.7Zm-1.2 9.5c.8 0 1.5.7 1.5 1.5s.7 1.5 1.5 1.5 1.5-.7 1.5-1.5.7-1.5 1.5-1.5 1.5.7 1.5 1.5.7 1.5 1.5 1.5 1.5-.7 1.5-1.5.7-1.5 1.5-1.5 1.5.7 1.5 1.5.7 1.5 1.5 1.5 1.5-.7 1.5-1.5.7-1.5 1.5-1.5 1.5.7 1.5 1.5.7 1.5 1.5 1.5 1.5-.7 1.5-1.5.7-1.5 1.5-1.5v.8a2.5 2.5 0 0 1-5 0 2.5 2.5 0 0 1-5 0 2.5 2.5 0 0 1-5 0 2.5 2.5 0 0 1-5 0 2.5 2.5 0 0 1-5 0 2.5 2.5 0 0 1-5 0v-.8Z"/>
</svg>
